<svg width="30" height="30" viewBox="0 0 30 30" fill="none" xmlns="http://www.w3.org/2000/svg">
<g clip-path="url(#clip0)">
<path d="M14.999 16.95C13.8539 16.95 12.7086 16.6877 11.6647 16.1636L1.10914 10.862C0.429594 10.5205 0.00410399 9.83617 -0.000931398 9.07582C-0.00596678 8.31525 0.410368 7.6254 1.08534 7.27498L11.577 1.83011C13.7198 0.717974 16.2785 0.718203 18.4213 1.83011L28.9129 7.27498C29.5879 7.6254 30.004 8.31548 29.999 9.07582C29.9939 9.83617 29.5687 10.5205 28.8891 10.862L18.3334 16.1636C17.2894 16.6877 16.1441 16.95 14.999 16.95ZM11.7794 2.22013L11.9817 2.61014L1.49 8.05501C1.10388 8.25551 0.874997 8.63477 0.877972 9.06987C0.880948 9.50498 1.11464 9.88126 1.5035 10.0765L12.0593 15.3781C13.8999 16.3028 16.0981 16.3028 17.9388 15.3781L28.4945 10.0765C28.8834 9.88126 29.1171 9.50498 29.1201 9.06987C29.1228 8.63477 28.8942 8.25551 28.508 8.05501L18.0161 2.61014C16.1269 1.62961 13.8711 1.62961 11.9817 2.61014L11.7794 2.22013Z" fill="white"/>
<path d="M14.999 22.9814C13.8539 22.9814 12.7086 22.7194 11.6647 22.195L1.10891 16.8936C0.429365 16.5521 0.00410399 15.8678 -0.000931398 15.1072C-0.00596678 14.3469 0.410368 13.6568 1.08534 13.3066L4.25488 11.6616L4.65978 12.4417L1.49023 14.0866C1.10411 14.2871 0.875226 14.6664 0.877972 15.1015C0.880948 15.5366 1.11486 15.9129 1.5035 16.1081L12.0593 21.4097C13.9002 22.3342 16.0981 22.3342 17.9388 21.4097L28.4945 16.1081C28.8834 15.9129 29.1171 15.5366 29.1201 15.1015C29.1231 14.6664 28.8942 14.2871 28.508 14.0866L25.3383 12.4417L25.7432 11.6616L28.9129 13.3066C29.5879 13.657 30.004 14.3469 29.999 15.1072C29.9939 15.8678 29.5687 16.5521 28.8891 16.8936L18.3334 22.195C17.2894 22.7194 16.1441 22.9814 14.999 22.9814Z" fill="white"/>
<path d="M10.3647 15.4577C10.2059 15.4577 10.0525 15.3714 9.97423 15.2205C9.86253 15.0052 9.94653 14.7399 10.1619 14.6282L11.5778 13.8933C13.5789 12.8548 15.9112 12.7772 17.9764 13.6806C18.1988 13.7779 18.3002 14.037 18.203 14.2595C18.1057 14.4817 17.8464 14.5831 17.6241 14.4858C15.8034 13.6893 13.7469 13.7578 11.9824 14.6735L10.5668 15.4082C10.502 15.4416 10.4329 15.4577 10.3647 15.4577Z" fill="white"/>
<path d="M14.999 29.0133C13.8539 29.0133 12.7086 28.7512 11.6647 28.2269L1.10891 22.9253C0.429365 22.584 0.00410399 21.8997 -0.000931398 21.1391C-0.00596678 20.3787 0.410368 19.6887 1.08534 19.3385L8.35369 15.5663C8.56929 15.4543 8.83434 15.5383 8.94626 15.7537C9.05796 15.9693 8.97396 16.2346 8.75858 16.3463L1.49 20.1185C1.10388 20.319 0.875226 20.6983 0.877972 21.1334C0.880948 21.5685 1.11464 21.9447 1.5035 22.14L12.0593 27.4413C13.8999 28.366 16.0981 28.366 17.9388 27.4413L28.4945 22.14C28.8834 21.9447 29.1171 21.5685 29.1201 21.1334C29.1228 20.6983 28.8942 20.319 28.508 20.1185L19.432 15.4083C19.2166 15.2964 19.1324 15.0311 19.2443 14.8158C19.356 14.6002 19.6215 14.5164 19.8369 14.6281L28.9127 19.3385C29.5879 19.6887 30.004 20.3787 29.999 21.1391C29.9939 21.8997 29.5687 22.584 28.8891 22.9253L18.3334 28.2269C17.2894 28.7512 16.1441 29.0133 14.999 29.0133Z" fill="white"/>
<path d="M4.45849 12.4916C4.29965 12.4916 4.1463 12.4051 4.06802 12.2545C3.95633 12.0389 4.0401 11.7738 4.2557 11.6619L11.5778 7.86176C13.7206 6.74986 16.2791 6.74986 18.4219 7.86176C18.4219 7.86176 19.2293 8.19547 18.9895 8.65163C18.7514 9.1039 18.017 8.64202 18.017 8.64202C16.128 7.66149 13.8719 7.66149 11.9827 8.64202L4.66037 12.4419C4.59582 12.4756 4.52647 12.4916 4.45849 12.4916Z" fill="white"/>
<path d="M25.5416 12.4916C25.4734 12.4916 25.4042 12.4756 25.3395 12.442L20.1013 9.72354C19.8859 9.61185 19.8019 9.34657 19.9138 9.13119C20.0255 8.91559 20.2908 8.83182 20.5062 8.94351L25.7443 11.6619C25.9597 11.7739 26.0437 12.0391 25.932 12.2545C25.8538 12.4051 25.7004 12.4916 25.5416 12.4916Z" fill="white"/>
</g>
<defs>
<clipPath id="clip0">
<rect width="30" height="30" fill="white"/>
</clipPath>
</defs>
</svg>
