<svg width="30" height="30" viewBox="0 0 30 30" fill="none" xmlns="http://www.w3.org/2000/svg">
<path d="M13.3086 0C12.985 0 12.7227 0.262324 12.7227 0.585938V4.19924C12.7227 4.52279 12.985 4.78518 13.3086 4.78518C13.6322 4.78518 13.8945 4.52285 13.8945 4.19924V0.585938C13.8945 0.262324 13.6322 0 13.3086 0Z" fill="white"/>
<path d="M20.9986 7.69141H17.3853C17.0616 7.69141 16.7993 7.95373 16.7993 8.27734C16.7993 8.60096 17.0616 8.86328 17.3853 8.86328H20.9986C21.3222 8.86328 21.5845 8.60096 21.5845 8.27734C21.5845 7.95373 21.3222 7.69141 20.9986 7.69141Z" fill="white"/>
<path d="M9.23043 7.68994H5.61719C5.29357 7.68994 5.03125 7.95227 5.03125 8.27588C5.03125 8.59949 5.29357 8.86182 5.61719 8.86182H9.23048C9.55404 8.86182 9.81636 8.59949 9.81636 8.27588C9.81636 7.95227 9.55404 7.68994 9.23043 7.68994Z" fill="white"/>
<path d="M10.4099 4.54895L8.70391 2.84299C8.4751 2.61418 8.10409 2.61418 7.87522 2.84299C7.64641 3.0718 7.64641 3.44282 7.87522 3.67168L9.58123 5.37764C9.69567 5.49207 9.84561 5.54926 9.99555 5.54926C10.1455 5.54926 10.2955 5.49207 10.4099 5.37764C10.6387 5.14883 10.6387 4.77782 10.4099 4.54895Z" fill="white"/>
<path d="M18.7414 2.84397C18.5126 2.61516 18.1416 2.61516 17.9127 2.84397L16.2068 4.54993C15.978 4.77873 15.978 5.14975 16.2068 5.37862C16.3212 5.49305 16.4712 5.55024 16.6211 5.55024C16.7711 5.55024 16.9211 5.49305 17.0355 5.37862L18.7414 3.67266C18.9702 3.44385 18.9702 3.07284 18.7414 2.84397Z" fill="white"/>
<path d="M22.8008 13.342C22.4052 13.342 22.0344 13.449 21.7148 13.6348C21.4484 12.739 20.6179 12.0837 19.6367 12.0837C19.0131 12.0837 18.4506 12.3487 18.0547 12.7716C17.6588 12.3487 17.0962 12.0837 16.4727 12.0837C16.1137 12.0837 15.7751 12.1719 15.4766 12.327V8.27637C15.4766 7.08094 14.504 6.1084 13.3086 6.1084C12.1132 6.1084 11.1406 7.08094 11.1406 8.27637V11.3658C11.1406 11.6895 11.4029 11.9518 11.7266 11.9518C12.0502 11.9518 12.3125 11.6895 12.3125 11.3658V8.27637C12.3125 7.72711 12.7593 7.28027 13.3086 7.28027C13.8579 7.28027 14.3047 7.72711 14.3047 8.27637V18.0854C14.3047 18.409 14.567 18.6714 14.8906 18.6714C15.2142 18.6714 15.4766 18.409 15.4766 18.0854V14.2516C15.4766 13.7024 15.9234 13.2555 16.4727 13.2555C17.0219 13.2555 17.4688 13.7024 17.4688 14.2516V14.8171V18.0854C17.4688 18.409 17.7311 18.6714 18.0547 18.6714C18.3783 18.6714 18.6406 18.409 18.6406 18.0854V14.8171V14.2516C18.6406 13.7024 19.0875 13.2555 19.6367 13.2555C20.186 13.2555 20.6328 13.7024 20.6328 14.2516V15.5099V16.5233V18.0855C20.6328 18.4091 20.8951 18.6714 21.2188 18.6714C21.5424 18.6714 21.8047 18.4091 21.8047 18.0855V16.5233V15.5099C21.8047 14.9607 22.2515 14.5138 22.8008 14.5138C23.35 14.5138 23.7969 14.9607 23.7969 15.5099V21.6373C23.7969 22.0738 23.7576 22.5108 23.6799 22.9362C23.6219 23.2546 23.8329 23.5597 24.1512 23.6177C24.1868 23.6242 24.2221 23.6273 24.257 23.6273C24.5346 23.6273 24.7812 23.4292 24.8328 23.1464C24.923 22.6518 24.9688 22.1441 24.9688 21.6373V15.5099C24.9688 14.3146 23.9962 13.342 22.8008 13.342Z" fill="white"/>
<path d="M22.3384 26.9252C22.1177 26.6886 21.7469 26.6757 21.5103 26.8965C20.1751 28.1421 18.4335 28.8281 16.6063 28.8281C13.865 28.8281 11.3233 27.2331 10.1312 24.7645L7.43219 19.176C7.18874 18.672 7.37782 18.0579 7.86256 17.778C8.36378 17.4887 9.01633 17.6553 9.31751 18.1494L11.2264 21.2815C11.3631 21.5057 11.6323 21.6117 11.8851 21.5407C12.138 21.4697 12.3127 21.2392 12.3127 20.9766V15.2344C12.3127 14.9108 12.0504 14.6484 11.7268 14.6484C11.4032 14.6484 11.1408 14.9108 11.1408 15.2344V18.8893L10.3182 17.5395C9.67797 16.489 8.34192 16.148 7.27663 16.7631C6.26325 17.3482 5.86803 18.6319 6.37698 19.6856L9.07598 25.2742C9.76071 26.692 10.8275 27.8838 12.1611 28.7207C13.4947 29.5576 15.0319 30 16.6063 30C18.7313 30 20.7568 29.2021 22.3097 27.7533C22.5463 27.5326 22.5592 27.1618 22.3384 26.9252Z" fill="white"/>
<path d="M23.8542 24.9373C23.7452 24.8283 23.594 24.7656 23.4399 24.7656C23.2858 24.7656 23.1347 24.8283 23.0257 24.9373C22.9167 25.0463 22.854 25.1975 22.854 25.3516C22.854 25.5063 22.9167 25.6568 23.0257 25.7658C23.1347 25.8748 23.2858 25.9375 23.4399 25.9375C23.594 25.9375 23.7452 25.8748 23.8542 25.7658C23.9632 25.6568 24.0259 25.5063 24.0259 25.3516C24.0259 25.1975 23.9632 25.0463 23.8542 24.9373Z" fill="white"/>
<path d="M12.1408 12.9451C12.0318 12.8361 11.8807 12.7734 11.7266 12.7734C11.5725 12.7734 11.4213 12.8361 11.3123 12.9451C11.2033 13.0541 11.1406 13.2053 11.1406 13.3594C11.1406 13.5135 11.2033 13.6646 11.3123 13.7736C11.4213 13.8826 11.5725 13.9453 11.7266 13.9453C11.8807 13.9453 12.0318 13.8826 12.1408 13.7736C12.2498 13.6646 12.3125 13.5135 12.3125 13.3594C12.3125 13.2053 12.2498 13.0541 12.1408 12.9451Z" fill="white"/>
</svg>
