<svg width="30" height="30" viewBox="0 0 30 30" fill="none" xmlns="http://www.w3.org/2000/svg">
<path d="M28.8281 1.17188H1.17188C0.525742 1.17188 0 1.69762 0 2.34375V4.45312C0 5.05875 0.461883 5.55862 1.05194 5.61882L11.0241 18.1345V27.2747C11.0241 27.8437 11.3203 28.3495 11.8165 28.6281C12.0561 28.7624 12.3166 28.8295 12.5768 28.8295C12.8554 28.8295 13.1332 28.7526 13.3843 28.5995L18.0148 25.7744C18.4735 25.4945 18.7585 24.9868 18.7585 24.4494V18.3524L28.9474 5.61905C29.5377 5.55908 30 5.0592 30 4.45312V2.34375C30 1.69762 29.4743 1.17188 28.8281 1.17188V1.17188ZM17.7152 17.7809C17.6319 17.8848 17.5866 18.0139 17.5866 18.1469V24.4494C17.5866 24.581 17.5168 24.7053 17.4046 24.7739L12.7741 27.599C12.6027 27.7036 12.4484 27.6389 12.3901 27.6061C12.3317 27.5734 12.196 27.4754 12.196 27.2747V17.9297C12.196 17.7969 12.1511 17.6683 12.0685 17.5646L2.55524 5.625H12.6638C12.9872 5.625 13.2497 5.3627 13.2497 5.03906C13.2497 4.71542 12.9872 4.45312 12.6638 4.45312H1.17188V2.34375H28.8281V4.45312H17.3513C17.0277 4.45312 16.7654 4.71542 16.7654 5.03906C16.7654 5.3627 17.0277 5.625 17.3513 5.625H27.4416L17.7152 17.7809Z" fill="#F8F8F8"/>
<path d="M15 4.45312C14.846 4.45312 14.6947 4.51584 14.5857 4.62479C14.4768 4.73373 14.4141 4.88503 14.4141 5.03906C14.4141 5.1931 14.4768 5.34439 14.5857 5.45334C14.6947 5.56229 14.846 5.625 15 5.625C15.154 5.625 15.3053 5.56229 15.4143 5.45334C15.5232 5.34439 15.5859 5.1931 15.5859 5.03906C15.5859 4.88503 15.5232 4.73373 15.4143 4.62479C15.3053 4.51584 15.154 4.45312 15 4.45312Z" fill="#F8F8F8"/>
</svg>
