<svg width="30" height="30" viewBox="0 0 30 30" fill="none" xmlns="http://www.w3.org/2000/svg">
<g clip-path="url(#clip0)">
<path d="M8.29364 0.191331C8.03465 -0.0588523 7.62188 -0.0516396 7.37169 0.207346C7.12768 0.460035 7.12768 0.860585 7.37169 1.11321L21.254 14.9968L7.37041 28.8792C7.11142 29.1293 7.10427 29.5421 7.35439 29.8011C7.60458 30.0601 8.01729 30.0672 8.27634 29.8171C8.28178 29.8119 8.2871 29.8066 8.29235 29.8011L22.6363 15.4572C22.8908 15.2026 22.8908 14.7899 22.6363 14.5352L8.29364 0.191331Z" fill="#F44336"/>
<path d="M7.83189 29.9922C7.4718 29.9929 7.17938 29.7014 7.17871 29.3413C7.17841 29.1677 7.24736 29.0012 7.37028 28.8786L21.2539 14.9962L7.37028 1.11395C7.11533 0.859001 7.11533 0.445676 7.37028 0.190725C7.62523 -0.064226 8.03855 -0.064226 8.2935 0.190725L22.6375 14.5347C22.892 14.7893 22.892 15.202 22.6375 15.4566L8.2935 29.8005C8.17125 29.9232 8.00512 29.9922 7.83189 29.9922Z" fill="white"/>
</g>
<defs>
<clipPath id="clip0">
<rect width="30" height="30" fill="white"/>
</clipPath>
</defs>
</svg>
