<svg width="30" height="30" viewBox="0 0 30 30" fill="none" xmlns="http://www.w3.org/2000/svg">
<path d="M8.50049 5C8.22435 5 8.00049 5.22386 8.00049 5.5V16C8.00049 16.2762 8.22435 16.5 8.50049 16.5C8.77663 16.5 9.00049 16.2762 9.00049 16V5.5C9.00049 5.22386 8.77663 5 8.50049 5Z" fill="white"/>
<path d="M8.50049 18.0005C8.22435 18.0005 8.00049 18.2243 8.00049 18.5005V23.0935C8.00049 23.3696 8.22435 23.5935 8.50049 23.5935C8.77663 23.5935 9.00049 23.3696 9.00049 23.0935V18.5005C9.00049 18.2243 8.77663 18.0005 8.50049 18.0005Z" fill="white"/>
<path d="M15 14C15.2761 14 15.5 13.7761 15.5 13.5V3C15.5 2.72386 15.2761 2.5 15 2.5C14.7239 2.5 14.5 2.72386 14.5 3V13.5C14.5 13.7761 14.7239 14 15 14Z" fill="white"/>
<path d="M21.5 12C21.7761 12 22 11.7761 22 11.5V5.5C22 5.22386 21.7761 5 21.5 5C21.2239 5 21 5.22386 21 5.5V11.5C21 11.7761 21.2239 12 21.5 12Z" fill="white"/>
<path d="M29.5865 0.376691C29.3287 0.186512 28.9947 0.133202 28.6905 0.233691L21.5155 2.56519L15.378 0.113191C15.1393 0.011498 14.8696 0.0104164 14.63 0.110191L8.48401 2.56019L1.30901 0.233691C1.005 0.133203 0.671117 0.186519 0.413513 0.376691C0.154019 0.566105 0.000418288 0.86792 1.33932e-05 1.18919V22.5442C-0.00223053 22.9779 0.277688 23.3627 0.691013 23.4942L8.17751 25.9202C8.27449 25.9512 8.37569 25.9671 8.47751 25.9672C8.60621 25.9665 8.73379 25.9433 8.85451 25.8987L14.3 23.7177L15.022 25.4607L14.814 25.9437C14.6513 26.3188 14.735 26.7554 15.025 27.0437L15.952 27.9697C16.2399 28.2604 16.6767 28.3446 17.052 28.1817L17.535 27.9737L19.7175 28.8777L19.912 29.3667C20.0617 29.7506 20.4325 30.0025 20.8445 30.0002H22.1555C22.5655 30.0015 22.9343 29.7512 23.0845 29.3697L23.279 28.8817L25.4615 27.9772L25.944 28.1852C26.3201 28.3492 26.7583 28.2652 27.047 27.9737L27.9735 27.0477C28.265 26.759 28.349 26.3208 28.185 25.9447L27.977 25.4617L28.881 23.2792L29.3695 23.0847C29.7514 22.9344 30.0017 22.565 30 22.1547V1.18919C29.9996 0.86792 29.846 0.566105 29.5865 0.376691ZM8.48651 24.9687L1.00001 22.5442V1.18469L8.15901 3.50419C8.38489 3.58566 8.63299 3.58013 8.85501 3.48869L15 1.03869L21.1605 3.50019C21.3742 3.578 21.6075 3.58327 21.8245 3.51519L29 1.18919V19.7677L28.881 19.7202L27.977 17.5377L28.185 17.0547C28.3485 16.6788 28.2647 16.2411 27.974 15.9522L27.047 15.0262C26.759 14.7357 26.3223 14.6515 25.947 14.8142L25.464 15.0222L23.2815 14.1177L23.087 13.6302C22.9364 13.2479 22.5663 12.9976 22.1555 13.0002H20.8445C20.4345 12.9989 20.0657 13.2492 19.9155 13.6307L19.721 14.1187L20.186 14.3037L19.721 14.1192L17.5385 15.0232L17.055 14.8147C16.6796 14.6529 16.2434 14.737 15.955 15.0267L15.028 15.9537C14.7381 16.2421 14.6544 16.6785 14.817 17.0537L15.025 17.5367L14.119 19.7202L13.6295 19.9147C13.2486 20.0657 12.9989 20.4344 13 20.8442V22.1547C13.001 22.4881 13.1703 22.7984 13.45 22.9797L8.48651 24.9687ZM29 22.1552L28.5115 22.3487C28.2611 22.4493 28.0615 22.6461 27.9575 22.8952L27.053 25.0777C26.9505 25.3275 26.9525 25.6079 27.0585 25.8562L27.267 26.3392L26.34 27.2662L25.858 27.0582C25.6095 26.9518 25.3287 26.9496 25.0785 27.0522L22.9 27.9562C22.6495 28.0594 22.4511 28.2593 22.35 28.5107L22.1555 29.0002H20.8445L20.65 28.5112C20.5499 28.2606 20.3531 28.0609 20.104 27.9572L17.9215 27.0502C17.8 27.0004 17.6699 26.9748 17.5385 26.9747C17.4025 26.9745 17.2679 27.0022 17.143 27.0562L16.66 27.2637L15.7335 26.3372L15.9415 25.8542C16.0475 25.6059 16.0495 25.3255 15.947 25.0757L15.0425 22.8927V22.8892V22.8812C15.0385 22.8712 15.0305 22.8652 15.026 22.8557C14.9175 22.625 14.7254 22.4443 14.4885 22.3502L14 22.1547V20.8437L14.4885 20.6497C14.7391 20.5493 14.9387 20.3524 15.0425 20.1032L15.9465 17.9212C16.0499 17.6715 16.0481 17.3906 15.9415 17.1422L15.733 16.6592L16.66 15.7322L17.142 15.9402C17.3906 16.0464 17.6713 16.0485 17.9215 15.9462L20.104 15.0422C20.353 14.9383 20.5498 14.7387 20.65 14.4882L20.8445 14.0002H22.1555L22.35 14.4887C22.4502 14.7392 22.647 14.9388 22.896 15.0427L25.0785 15.9467C25.3282 16.0499 25.609 16.0478 25.857 15.9407L26.34 15.7332L27.2665 16.6597L27.0585 17.1427C26.952 17.3909 26.95 17.6715 27.053 17.9212L27.9575 20.1042C28.0613 20.3533 28.261 20.5501 28.5115 20.6502L29 20.8452V22.1552Z" fill="white"/>
<path d="M21.5005 17C19.0152 17 17.0005 19.0147 17.0005 21.5C17.0005 23.9853 19.0152 26 21.5005 26C23.9858 26 26.0005 23.9853 26.0005 21.5C25.9977 19.0159 23.9846 17.0028 21.5005 17ZM21.5005 25C19.5675 25 18.0005 23.433 18.0005 21.5C18.0005 19.567 19.5675 18 21.5005 18C23.4335 18 25.0005 19.567 25.0005 21.5C24.9983 23.4321 23.4326 24.9978 21.5005 25Z" fill="white"/>
</svg>
